<?xml version="1.0" encoding="UTF-8" standalone="no"?>
<!-- Created with Inkscape (http://www.inkscape.org/) -->

<svg
   xmlns:dc="http://purl.org/dc/elements/1.1/"
   xmlns:cc="http://creativecommons.org/ns#"
   xmlns:rdf="http://www.w3.org/1999/02/22-rdf-syntax-ns#"
   xmlns:svg="http://www.w3.org/2000/svg"
   xmlns="http://www.w3.org/2000/svg"
   xmlns:sodipodi="http://sodipodi.sourceforge.net/DTD/sodipodi-0.dtd"
   xmlns:inkscape="http://www.inkscape.org/namespaces/inkscape"
   width="24"
   height="24"
   viewBox="0 0 24 24"
   id="svg4143"
   version="1.1"
   inkscape:version="0.91 r13725"
   sodipodi:docname="bingodrawing.svg">
  <defs
     id="defs4145" />
  <sodipodi:namedview
     id="base"
     pagecolor="#ffffff"
     bordercolor="#666666"
     borderopacity="1.0"
     inkscape:pageopacity="0.0"
     inkscape:pageshadow="2"
     inkscape:zoom="5.6"
     inkscape:cx="-5.4891647"
     inkscape:cy="13.431482"
     inkscape:document-units="px"
     inkscape:current-layer="layer1"
     showgrid="false"
     units="px"
     inkscape:window-width="1366"
     inkscape:window-height="706"
     inkscape:window-x="-8"
     inkscape:window-y="-8"
     inkscape:window-maximized="1" />
  <metadata
     id="metadata4148">
    <rdf:RDF>
      <cc:Work
         rdf:about="">
        <dc:format>image/svg+xml</dc:format>
        <dc:type
           rdf:resource="http://purl.org/dc/dcmitype/StillImage" />
        <dc:title />
      </cc:Work>
    </rdf:RDF>
  </metadata>
  <g
     inkscape:label="Layer 1"
     inkscape:groupmode="layer"
     id="layer1"
     transform="translate(0,-1028.3622)">
    <g
       id="g4156"
       transform="matrix(0.88403239,0,0,0.88403239,1.5032376,120.75999)">
      <path
         sodipodi:nodetypes="sssccss"
         inkscape:connector-curvature="0"
         id="rect4165"
         d="m 4.5138609,1031.3007 14.7197401,0 c 0.872748,0 1.575357,0.7026 1.575357,1.5753 l 0,1.671 -17.870454,0 0,-1.671 c 0,-0.8727 0.7026092,-1.5753 1.5753569,-1.5753 z"
         style="opacity:1;fill:#ff4343;fill-opacity:1;stroke:none;stroke-width:0.78200001;stroke-linecap:butt;stroke-linejoin:round;stroke-miterlimit:4;stroke-dasharray:none;stroke-dashoffset:0;stroke-opacity:1" />
      <rect
         ry="1.575357"
         y="1031.3007"
         x="2.9385042"
         height="17.870453"
         width="17.870453"
         id="rect4695"
         style="opacity:1;fill:none;fill-opacity:1;stroke:#000000;stroke-width:0.60761213;stroke-linecap:butt;stroke-linejoin:round;stroke-miterlimit:4;stroke-dasharray:none;stroke-dashoffset:0;stroke-opacity:1" />
      <path
         d="m 4.6641348,1033.1596 0,0.7137 0.4227176,0 q 0.2126636,0 0.3144289,-0.087 0.1030701,-0.089 0.1030701,-0.27 0,-0.1827 -0.1030701,-0.2689 -0.1017653,-0.087 -0.3144289,-0.087 l -0.4227176,0 z m 0,-0.801 0,0.5871 0.3901006,0 q 0.1930932,0 0.2870305,-0.072 0.095242,-0.073 0.095242,-0.2217 0,-0.1475 -0.095242,-0.2205 -0.093937,-0.073 -0.2870305,-0.073 l -0.3901006,0 z m -0.2635462,-0.2166 0.673217,0 q 0.301382,0 0.4644675,0.1252 0.1630856,0.1253 0.1630856,0.3562 0,0.1788 -0.0835,0.2845 -0.0835,0.1057 -0.2452806,0.1318 0.1943979,0.042 0.301382,0.1748 0.1082888,0.1318 0.1082888,0.3301 0,0.2609 -0.1774371,0.4031 -0.177437,0.1422 -0.5049127,0.1422 l -0.6993107,0 0,-1.9479 z"
         style="font-style:normal;font-weight:normal;font-size:medium;line-height:125%;font-family:sans-serif;text-align:center;letter-spacing:2.11999989px;word-spacing:0px;text-anchor:middle;fill:#000000;fill-opacity:1;stroke:none;stroke-width:0.2;stroke-linecap:butt;stroke-linejoin:miter;stroke-miterlimit:4;stroke-dasharray:none;stroke-opacity:1"
         id="path4169"
         inkscape:connector-curvature="0" />
      <path
         d="m 8.0758214,1032.142 0.2635462,0 0,1.9479 -0.2635462,0 0,-1.9479 z"
         style="font-style:normal;font-weight:normal;font-size:medium;line-height:125%;font-family:sans-serif;text-align:center;letter-spacing:2.11999989px;word-spacing:0px;text-anchor:middle;fill:#000000;fill-opacity:1;stroke:none;stroke-width:1px;stroke-linecap:butt;stroke-linejoin:miter;stroke-opacity:1"
         id="path4171"
         inkscape:connector-curvature="0" />
      <path
         d="m 11.099756,1032.142 0.354874,0 0.863701,1.6296 0,-1.6296 0.255718,0 0,1.9479 -0.354874,0 -0.863701,-1.6296 0,1.6296 -0.255718,0 0,-1.9479 z"
         style="font-style:normal;font-weight:normal;font-size:medium;line-height:125%;font-family:sans-serif;text-align:center;letter-spacing:2.11999989px;word-spacing:0px;text-anchor:middle;fill:#000000;fill-opacity:1;stroke:none;stroke-width:1px;stroke-linecap:butt;stroke-linejoin:miter;stroke-opacity:1"
         id="path4173"
         inkscape:connector-curvature="0" />
      <path
         d="m 15.926768,1033.812 0,-0.5232 -0.430546,0 0,-0.2166 0.691483,0 0,0.8364 q -0.152648,0.1082 -0.336608,0.1643 -0.183961,0.055 -0.392711,0.055 -0.456639,0 -0.714966,-0.2662 -0.257024,-0.2675 -0.257024,-0.7437 0,-0.4774 0.257024,-0.7436 0.258327,-0.2675 0.714966,-0.2675 0.190484,0 0.361398,0.047 0.172218,0.047 0.317038,0.1383 l 0,0.2805 q -0.146125,-0.1239 -0.310515,-0.1865 -0.16439,-0.063 -0.345741,-0.063 -0.357484,0 -0.53753,0.1996 -0.178742,0.1997 -0.178742,0.595 0,0.394 0.178742,0.5936 0.180046,0.1996 0.53753,0.1996 0.139601,0 0.249195,-0.023 0.109593,-0.025 0.197007,-0.075 z"
         style="font-style:normal;font-weight:normal;font-size:medium;line-height:125%;font-family:sans-serif;text-align:center;letter-spacing:2.11999989px;word-spacing:0px;text-anchor:middle;fill:#000000;fill-opacity:1;stroke:none;stroke-width:1px;stroke-linecap:butt;stroke-linejoin:miter;stroke-opacity:1"
         id="path4175"
         inkscape:connector-curvature="0" />
      <path
         d="m 18.912088,1032.3208 q -0.28703,0 -0.456639,0.2139 -0.168304,0.214 -0.168304,0.5832 0,0.3679 0.168304,0.5819 0.169609,0.214 0.456639,0.214 0.287031,0 0.45403,-0.214 0.168305,-0.214 0.168305,-0.5819 0,-0.3692 -0.168305,-0.5832 -0.166999,-0.2139 -0.45403,-0.2139 z m 0,-0.214 q 0.409671,0 0.654952,0.2753 0.245281,0.274 0.245281,0.7358 0,0.4605 -0.245281,0.7358 -0.245281,0.2741 -0.654952,0.2741 -0.410975,0 -0.657561,-0.2741 -0.24528,-0.2739 -0.24528,-0.7358 0,-0.4618 0.24528,-0.7358 0.246586,-0.2753 0.657561,-0.2753 z"
         style="font-style:normal;font-weight:normal;font-size:medium;line-height:125%;font-family:sans-serif;text-align:center;letter-spacing:2.11999989px;word-spacing:0px;text-anchor:middle;fill:#000000;fill-opacity:1;stroke:none;stroke-width:1px;stroke-linecap:butt;stroke-linejoin:miter;stroke-opacity:1"
         id="path4177"
         inkscape:connector-curvature="0" />
      <path
         inkscape:connector-curvature="0"
         id="path4147"
         d="m 13.671285,1034.8433 0,14.177"
         style="fill:none;fill-rule:evenodd;stroke:#000000;stroke-width:0.40724963;stroke-linecap:butt;stroke-linejoin:miter;stroke-miterlimit:4;stroke-dasharray:none;stroke-opacity:1" />
      <path
         style="fill:none;fill-rule:evenodd;stroke:#000000;stroke-width:0.40724963;stroke-linecap:butt;stroke-linejoin:miter;stroke-miterlimit:4;stroke-dasharray:none;stroke-opacity:1"
         d="m 10.072738,1034.8433 0,14.177"
         id="path4149"
         inkscape:connector-curvature="0" />
      <path
         inkscape:connector-curvature="0"
         id="path4151"
         d="m 6.47419,1034.8433 0,14.177"
         style="fill:none;fill-rule:evenodd;stroke:#000000;stroke-width:0.40724963;stroke-linecap:butt;stroke-linejoin:miter;stroke-miterlimit:4;stroke-dasharray:none;stroke-opacity:1" />
      <path
         style="fill:none;fill-rule:evenodd;stroke:#000000;stroke-width:0.40724963;stroke-linecap:butt;stroke-linejoin:miter;stroke-miterlimit:4;stroke-dasharray:none;stroke-opacity:1"
         d="m 17.269832,1034.8433 0,14.177"
         id="path4153"
         inkscape:connector-curvature="0" />
      <path
         style="fill:none;fill-rule:evenodd;stroke:#000000;stroke-width:0.45516133;stroke-linecap:butt;stroke-linejoin:miter;stroke-miterlimit:4;stroke-dasharray:none;stroke-opacity:1"
         d="m 20.677458,1043.4979 -17.7090085,0"
         id="path4155"
         inkscape:connector-curvature="0" />
      <path
         inkscape:connector-curvature="0"
         id="path4157"
         d="m 20.677458,1040.5981 -17.7090085,0"
         style="fill:none;fill-rule:evenodd;stroke:#000000;stroke-width:0.45516133;stroke-linecap:butt;stroke-linejoin:miter;stroke-miterlimit:4;stroke-dasharray:none;stroke-opacity:1" />
      <path
         style="fill:none;fill-rule:evenodd;stroke:#000000;stroke-width:0.45516133;stroke-linecap:butt;stroke-linejoin:miter;stroke-miterlimit:4;stroke-dasharray:none;stroke-opacity:1"
         d="m 20.677458,1037.6985 -17.7090085,0"
         id="path4159"
         inkscape:connector-curvature="0" />
      <path
         inkscape:connector-curvature="0"
         id="path4161"
         d="m 20.677458,1046.3976 -17.7090085,0"
         style="fill:none;fill-rule:evenodd;stroke:#000000;stroke-width:0.45516133;stroke-linecap:butt;stroke-linejoin:miter;stroke-miterlimit:4;stroke-dasharray:none;stroke-opacity:1" />
      <path
         inkscape:connector-curvature="0"
         id="path4163"
         d="m 20.677458,1034.7988 -17.7090085,0"
         style="fill:none;fill-rule:evenodd;stroke:#000000;stroke-width:0.45516133;stroke-linecap:butt;stroke-linejoin:miter;stroke-miterlimit:4;stroke-dasharray:none;stroke-opacity:1" />
      <path
         inkscape:transform-center-y="0.024636904"
         inkscape:transform-center-x="0.014676253"
         d="m 12.429436,1042.8487 -0.522153,-0.4245 -0.534743,0.4086 0.242401,-0.6278 -0.553809,-0.3823 0.671964,0.037 0.19247,-0.6448 0.172897,0.6503 0.672762,-0.016 -0.565109,0.3654 z"
         inkscape:randomized="0"
         inkscape:rounded="0"
         inkscape:flatsided="false"
         sodipodi:arg2="1.5859075"
         sodipodi:arg1="0.95758898"
         sodipodi:r2="0.3108345"
         sodipodi:r1="0.89915186"
         sodipodi:cy="1042.1134"
         sodipodi:cx="11.91198"
         sodipodi:sides="5"
         id="path4184"
         style="opacity:1;fill:#000000;fill-opacity:1;stroke:#000000;stroke-width:0.12105925;stroke-linecap:butt;stroke-linejoin:round;stroke-miterlimit:4;stroke-dasharray:none;stroke-dashoffset:0;stroke-opacity:1"
         sodipodi:type="star" />
    </g>
    <rect
       style="opacity:1;fill:none;fill-opacity:1;stroke:#000000;stroke-width:0.78160298;stroke-linecap:butt;stroke-linejoin:round;stroke-miterlimit:4;stroke-dasharray:none;stroke-dashoffset:0;stroke-opacity:1"
       id="rect4695-6"
       width="22.999367"
       height="22.999367"
       x="0.50031662"
       y="1028.8625"
       ry="2.0274925" />
  </g>
</svg>
