<?xml version="1.0" encoding="UTF-8" standalone="no"?>
<!-- Created with Inkscape (http://www.inkscape.org/) -->

<svg
   xmlns:dc="http://purl.org/dc/elements/1.1/"
   xmlns:cc="http://creativecommons.org/ns#"
   xmlns:rdf="http://www.w3.org/1999/02/22-rdf-syntax-ns#"
   xmlns:svg="http://www.w3.org/2000/svg"
   xmlns="http://www.w3.org/2000/svg"
   xmlns:xlink="http://www.w3.org/1999/xlink"
   xmlns:sodipodi="http://sodipodi.sourceforge.net/DTD/sodipodi-0.dtd"
   xmlns:inkscape="http://www.inkscape.org/namespaces/inkscape"
   width="24"
   height="24"
   viewBox="0 0 24 24"
   id="svg4143"
   version="1.1"
   inkscape:version="0.91 r13725"
   sodipodi:docname="colorandnumberdrawing.svg">
  <defs
     id="defs4145">
    <linearGradient
       inkscape:collect="always"
       id="linearGradient4726">
      <stop
         style="stop-color:#153752;stop-opacity:1"
         offset="0"
         id="stop4728" />
      <stop
         style="stop-color:#1d89c8;stop-opacity:1"
         offset="1"
         id="stop4730" />
    </linearGradient>
    <linearGradient
       inkscape:collect="always"
       id="linearGradient4785">
      <stop
         style="stop-color:#970b0b;stop-opacity:1"
         offset="0"
         id="stop4827" />
      <stop
         style="stop-color:#ff4343;stop-opacity:1"
         offset="1"
         id="stop4829" />
    </linearGradient>
    <linearGradient
       inkscape:collect="always"
       xlink:href="#linearGradient4785"
       id="linearGradient4719"
       x1="-8.2547712"
       y1="1051.2329"
       x2="-8.2547712"
       y2="1032.1536"
       gradientUnits="userSpaceOnUse"
       gradientTransform="matrix(0.84450873,0.04312628,-0.04312628,0.84450873,66.174633,161.18053)" />
    <linearGradient
       inkscape:collect="always"
       xlink:href="#linearGradient4726"
       id="linearGradient4724"
       gradientUnits="userSpaceOnUse"
       gradientTransform="matrix(-0.84450873,0.04312628,0.04312628,0.84450873,-42.419255,160.98297)"
       x1="-8.2547712"
       y1="1051.2329"
       x2="-8.2547712"
       y2="1032.1536" />
  </defs>
  <sodipodi:namedview
     id="base"
     pagecolor="#ffffff"
     bordercolor="#666666"
     borderopacity="1.0"
     inkscape:pageopacity="0.0"
     inkscape:pageshadow="2"
     inkscape:zoom="6.4205296"
     inkscape:cx="12.547641"
     inkscape:cy="-0.30114069"
     inkscape:document-units="px"
     inkscape:current-layer="layer1"
     showgrid="false"
     units="px"
     inkscape:window-width="1366"
     inkscape:window-height="706"
     inkscape:window-x="-8"
     inkscape:window-y="-8"
     inkscape:window-maximized="1"
     showguides="true" />
  <metadata
     id="metadata4148">
    <rdf:RDF>
      <cc:Work
         rdf:about="">
        <dc:format>image/svg+xml</dc:format>
        <dc:type
           rdf:resource="http://purl.org/dc/dcmitype/StillImage" />
        <dc:title />
      </cc:Work>
    </rdf:RDF>
  </metadata>
  <g
     inkscape:label="Layer 1"
     inkscape:groupmode="layer"
     id="layer1"
     transform="translate(0,-1028.3622)">
    <rect
       style="opacity:1;fill:none;fill-opacity:1;stroke:#000000;stroke-width:0.78160298;stroke-linecap:butt;stroke-linejoin:round;stroke-miterlimit:4;stroke-dasharray:none;stroke-dashoffset:0;stroke-opacity:1"
       id="rect4695"
       width="22.999367"
       height="22.999367"
       x="0.50031662"
       y="1028.8625"
       ry="2.0274925" />
    <path
       style="opacity:1;fill:url(#linearGradient4719);fill-opacity:1;stroke:#000000;stroke-width:0.44621661;stroke-linecap:butt;stroke-linejoin:miter;stroke-miterlimit:4;stroke-dasharray:none;stroke-dashoffset:0;stroke-opacity:1"
       d="m 13.320078,1032.2524 5.322448,0.2718 c 0.438496,0.022 0.849099,0.4038 0.751087,0.8319 -1.157081,5.0525 -1.038468,9.9671 -1.939209,14.7323 -0.08156,0.4314 -0.393433,0.7735 -0.831927,0.7511 l -5.32245,-0.2718 c -0.438493,-0.022 -0.836842,-0.4013 -0.751082,-0.8319 0.975021,-4.8964 0.988794,-11.1055 1.93921,-14.7323 0.111289,-0.4248 0.39343,-0.7735 0.831923,-0.7511 z"
       id="rect4711"
       inkscape:connector-curvature="0"
       sodipodi:nodetypes="sssssssss" />
    <path
       sodipodi:nodetypes="sssssssss"
       inkscape:connector-curvature="0"
       id="path4722"
       d="m 10.4353,1032.0548 -5.3224493,0.2718 c -0.4384949,0.022 -0.8490981,0.4038 -0.7510869,0.8318 1.1570817,5.0525 1.0384689,9.9671 1.9392093,14.7323 0.081559,0.4315 0.393434,0.7736 0.8319272,0.7512 l 5.3224507,-0.2718 c 0.438493,-0.023 0.836842,-0.4013 0.751082,-0.832 -0.975021,-4.8964 -0.988794,-11.1053 -1.93921,-14.7323 -0.111289,-0.4247 -0.39343,-0.7734 -0.831923,-0.751 z"
       style="opacity:1;fill:url(#linearGradient4724);fill-opacity:1;stroke:#000000;stroke-width:0.44621661;stroke-linecap:butt;stroke-linejoin:miter;stroke-miterlimit:4;stroke-dasharray:none;stroke-dashoffset:0;stroke-opacity:1" />
    <path
       inkscape:connector-curvature="0"
       id="path4840"
       style="font-style:normal;font-variant:normal;font-weight:bold;font-stretch:normal;font-size:medium;line-height:125%;font-family:sans-serif;-inkscape-font-specification:'sans-serif Bold';letter-spacing:0px;word-spacing:0px;fill:#000000;fill-opacity:1;stroke:none;stroke-width:1px;stroke-linecap:butt;stroke-linejoin:miter;stroke-opacity:1"
       d="m 9.4652794,1036.5134 q 0.5054262,0.086 0.7924486,0.3945 0.289934,0.3049 0.340215,0.8173 0.07491,0.7635 -0.44015,1.2167 -0.515406,0.4499 -1.5781799,0.5541 -0.374905,0.037 -0.7594597,0.01 -0.3809905,-0.025 -0.7618433,-0.1161 l -0.1002273,-1.0215 q 0.3703107,0.1512 0.7253231,0.2136 0.35793,0.058 0.6937142,0.026 0.4987869,-0.049 0.744974,-0.2571 0.24944,-0.2084 0.2160309,-0.5489 -0.034428,-0.3509 -0.3258133,-0.5028 -0.2884672,-0.1557 -0.8198538,-0.1036 l -0.5020469,0.049 -0.083683,-0.8528 0.5281273,-0.052 q 0.472706,-0.046 0.6889784,-0.224 0.2159449,-0.1808 0.1845591,-0.5007 -0.029012,-0.2957 -0.2698154,-0.4352 -0.2408034,-0.1396 -0.6515688,-0.099 -0.3031838,0.03 -0.6058133,0.1323 -0.3026302,0.1025 -0.5952296,0.2737 l -0.095154,-0.9697 q 0.3608434,-0.1466 0.7205671,-0.2375 0.3597243,-0.091 0.711809,-0.1254 0.9486724,-0.093 1.4505083,0.1909 0.5047601,0.2804 0.5695481,0.9406 0.04421,0.4506 -0.152389,0.7616 -0.1969269,0.3075 -0.6255691,0.4675 z" />
    <path
       inkscape:connector-curvature="0"
       id="path4842"
       style="font-style:normal;font-variant:normal;font-weight:bold;font-stretch:normal;font-size:medium;line-height:125%;font-family:sans-serif;-inkscape-font-specification:'sans-serif Bold';letter-spacing:0px;word-spacing:0px;fill:#000000;fill-opacity:1;stroke:none;stroke-width:1px;stroke-linecap:butt;stroke-linejoin:miter;stroke-opacity:1"
       d="m 13.876041,1034.4743 3.76109,0.3242 -0.06601,0.7655 -2.333818,4.3322 -1.253721,-0.1075 2.210112,-4.1085 -2.403754,-0.2072 0.08607,-0.9981 z" />
  </g>
</svg>
