<?xml version="1.0" encoding="UTF-8" standalone="no"?>
<!-- Created with Inkscape (http://www.inkscape.org/) -->

<svg
   xmlns:dc="http://purl.org/dc/elements/1.1/"
   xmlns:cc="http://creativecommons.org/ns#"
   xmlns:rdf="http://www.w3.org/1999/02/22-rdf-syntax-ns#"
   xmlns:svg="http://www.w3.org/2000/svg"
   xmlns="http://www.w3.org/2000/svg"
   xmlns:sodipodi="http://sodipodi.sourceforge.net/DTD/sodipodi-0.dtd"
   xmlns:inkscape="http://www.inkscape.org/namespaces/inkscape"
   width="8"
   height="8"
   id="svg2987"
   version="1.1"
   inkscape:version="0.91 r13725"
   sodipodi:docname="dice.svg">
  <defs
     id="defs2989" />
  <sodipodi:namedview
     id="base"
     pagecolor="#ffffff"
     bordercolor="#666666"
     borderopacity="1.0"
     inkscape:pageopacity="0.0"
     inkscape:pageshadow="2"
     inkscape:zoom="37.022749"
     inkscape:cx="-4.3370986"
     inkscape:cy="5.6682578"
     inkscape:document-units="px"
     inkscape:current-layer="layer1"
     showgrid="false"
     inkscape:window-width="1366"
     inkscape:window-height="706"
     inkscape:window-x="-8"
     inkscape:window-y="-8"
     inkscape:window-maximized="1" />
  <metadata
     id="metadata2992">
    <rdf:RDF>
      <cc:Work
         rdf:about="">
        <dc:format>image/svg+xml</dc:format>
        <dc:type
           rdf:resource="http://purl.org/dc/dcmitype/StillImage" />
        <dc:title />
      </cc:Work>
    </rdf:RDF>
  </metadata>
  <g
     inkscape:label="Layer 1"
     inkscape:groupmode="layer"
     id="layer1"
     transform="translate(0,-1044.3622)">
    <rect
       style="fill:none;stroke:#000000;stroke-width:0.44707635;stroke-linejoin:miter;stroke-miterlimit:4;stroke-dasharray:none;stroke-opacity:1"
       id="rect2997"
       width="7.2104683"
       height="7.2104688"
       x="-7.6052341"
       y="1044.757"
       transform="scale(-1,1)"
       ry="0.80332041" />
    <g
       id="g3968"
       transform="translate(0.01350525,0)">
      <g
         transform="translate(-0.1350521,-0.07004397)"
         id="g3955">
        <path
           sodipodi:type="arc"
           style="fill:#000000;fill-opacity:1;stroke:none"
           id="path3949"
           sodipodi:cx="-8.4137459"
           sodipodi:cy="-2.1424127"
           sodipodi:rx="1.3910366"
           sodipodi:ry="1.3910366"
           d="m -7.0227093,-2.1424127 a 1.3910366,1.3910366 0 0 1 -1.3910366,1.39103667 1.3910366,1.3910366 0 0 1 -1.3910366,-1.39103667 1.3910366,1.3910366 0 0 1 1.3910366,-1.3910366 1.3910366,1.3910366 0 0 1 1.3910366,1.3910366 z"
           transform="matrix(0.47572816,0,0,0.47572816,6.7871869,1047.4257)" />
        <path
           transform="matrix(0.47572816,0,0,0.47572816,6.7871869,1049.4514)"
           d="m -7.0227093,-2.1424127 a 1.3910366,1.3910366 0 0 1 -1.3910366,1.39103667 1.3910366,1.3910366 0 0 1 -1.3910366,-1.39103667 1.3910366,1.3910366 0 0 1 1.3910366,-1.3910366 1.3910366,1.3910366 0 0 1 1.3910366,1.3910366 z"
           sodipodi:ry="1.3910366"
           sodipodi:rx="1.3910366"
           sodipodi:cy="-2.1424127"
           sodipodi:cx="-8.4137459"
           id="path3951"
           style="fill:#000000;fill-opacity:1;stroke:none"
           sodipodi:type="arc" />
        <path
           sodipodi:type="arc"
           style="fill:#000000;fill-opacity:1;stroke:none"
           id="path3953"
           sodipodi:cx="-8.4137459"
           sodipodi:cy="-2.1424127"
           sodipodi:rx="1.3910366"
           sodipodi:ry="1.3910366"
           d="m -7.0227093,-2.1424127 a 1.3910366,1.3910366 0 0 1 -1.3910366,1.39103667 1.3910366,1.3910366 0 0 1 -1.3910366,-1.39103667 1.3910366,1.3910366 0 0 1 1.3910366,-1.3910366 1.3910366,1.3910366 0 0 1 1.3910366,1.3910366 z"
           transform="matrix(0.47572816,0,0,0.47572816,6.7871869,1051.4772)" />
      </g>
      <g
         transform="translate(2.5389795,-0.07004397)"
         id="g3960">
        <path
           transform="matrix(0.47572816,0,0,0.47572816,6.7871869,1047.4257)"
           d="m -7.0227093,-2.1424127 a 1.3910366,1.3910366 0 0 1 -1.3910366,1.39103667 1.3910366,1.3910366 0 0 1 -1.3910366,-1.39103667 1.3910366,1.3910366 0 0 1 1.3910366,-1.3910366 1.3910366,1.3910366 0 0 1 1.3910366,1.3910366 z"
           sodipodi:ry="1.3910366"
           sodipodi:rx="1.3910366"
           sodipodi:cy="-2.1424127"
           sodipodi:cx="-8.4137459"
           id="path3962"
           style="fill:#000000;fill-opacity:1;stroke:none"
           sodipodi:type="arc" />
        <path
           sodipodi:type="arc"
           style="fill:#000000;fill-opacity:1;stroke:none"
           id="path3964"
           sodipodi:cx="-8.4137459"
           sodipodi:cy="-2.1424127"
           sodipodi:rx="1.3910366"
           sodipodi:ry="1.3910366"
           d="m -7.0227093,-2.1424127 a 1.3910366,1.3910366 0 0 1 -1.3910366,1.39103667 1.3910366,1.3910366 0 0 1 -1.3910366,-1.39103667 1.3910366,1.3910366 0 0 1 1.3910366,-1.3910366 1.3910366,1.3910366 0 0 1 1.3910366,1.3910366 z"
           transform="matrix(0.47572816,0,0,0.47572816,6.7871869,1049.4514)" />
        <path
           transform="matrix(0.47572816,0,0,0.47572816,6.7871869,1051.4772)"
           d="m -7.0227093,-2.1424127 a 1.3910366,1.3910366 0 0 1 -1.3910366,1.39103667 1.3910366,1.3910366 0 0 1 -1.3910366,-1.39103667 1.3910366,1.3910366 0 0 1 1.3910366,-1.3910366 1.3910366,1.3910366 0 0 1 1.3910366,1.3910366 z"
           sodipodi:ry="1.3910366"
           sodipodi:rx="1.3910366"
           sodipodi:cy="-2.1424127"
           sodipodi:cx="-8.4137459"
           id="path3966"
           style="fill:#000000;fill-opacity:1;stroke:none"
           sodipodi:type="arc" />
      </g>
    </g>
  </g>
</svg>
