<?xml version="1.0" encoding="UTF-8" standalone="no"?>
<!-- Created with Inkscape (http://www.inkscape.org/) -->

<svg
   xmlns:dc="http://purl.org/dc/elements/1.1/"
   xmlns:cc="http://creativecommons.org/ns#"
   xmlns:rdf="http://www.w3.org/1999/02/22-rdf-syntax-ns#"
   xmlns:svg="http://www.w3.org/2000/svg"
   xmlns="http://www.w3.org/2000/svg"
   xmlns:sodipodi="http://sodipodi.sourceforge.net/DTD/sodipodi-0.dtd"
   xmlns:inkscape="http://www.inkscape.org/namespaces/inkscape"
   width="24"
   height="24"
   viewBox="0 0 24 24"
   id="svg4143"
   version="1.1"
   inkscape:version="0.91 r13725"
   sodipodi:docname="simpledrawing.svg">
  <defs
     id="defs4145" />
  <sodipodi:namedview
     id="base"
     pagecolor="#ffffff"
     bordercolor="#666666"
     borderopacity="1.0"
     inkscape:pageopacity="0.0"
     inkscape:pageshadow="2"
     inkscape:zoom="22.4"
     inkscape:cx="1.158584"
     inkscape:cy="15.301406"
     inkscape:document-units="px"
     inkscape:current-layer="layer1"
     showgrid="false"
     units="px"
     inkscape:window-width="1920"
     inkscape:window-height="1138"
     inkscape:window-x="1358"
     inkscape:window-y="-8"
     inkscape:window-maximized="1" />
  <metadata
     id="metadata4148">
    <rdf:RDF>
      <cc:Work
         rdf:about="">
        <dc:format>image/svg+xml</dc:format>
        <dc:type
           rdf:resource="http://purl.org/dc/dcmitype/StillImage" />
        <dc:title />
      </cc:Work>
    </rdf:RDF>
  </metadata>
  <g
     inkscape:label="Layer 1"
     inkscape:groupmode="layer"
     id="layer1"
     transform="translate(0,-1028.3622)">
    <g
       style="font-style:normal;font-weight:normal;font-size:9.6851263px;line-height:125%;font-family:sans-serif;letter-spacing:0px;word-spacing:0px;fill:#000000;fill-opacity:1;stroke:none;stroke-width:1px;stroke-linecap:butt;stroke-linejoin:miter;stroke-opacity:1"
       id="text4691"
       transform="translate(-1.4916334,0)">
      <path
         d="m 5.1259168,1036.8204 4.5399029,0 0,0.4067 -2.5631535,6.6538 -0.9978328,0 2.4118234,-6.2566 -3.39074,0 0,-0.8039 z"
         id="path4137"
         inkscape:connector-curvature="0" />
      <path
         d="m 11.699318,1043.0769 1.560591,0 0,-5.3864 -1.697734,0.3405 0,-0.8701 1.688276,-0.3405 0.955272,0 0,6.2565 1.560591,0 0,0.804 -4.066996,0 0,-0.804 z"
         id="path4139"
         inkscape:connector-curvature="0" />
      <path
         d="m 18.523359,1043.0769 3.333991,0 0,0.804 -4.483154,0 0,-0.804 q 0.543843,-0.5627 1.480198,-1.5086 0.941084,-0.9505 1.182266,-1.2248 0.45872,-0.5154 0.638424,-0.8701 0.184434,-0.3594 0.184434,-0.7047 0,-0.5627 -0.397242,-0.9174 -0.392512,-0.3547 -1.026207,-0.3547 -0.449261,0 -0.950542,0.1561 -0.496552,0.156 -1.06404,0.4729 l 0,-0.9647 q 0.576946,-0.2318 1.078227,-0.35 0.501281,-0.1182 0.917439,-0.1182 1.097143,0 1.749754,0.5486 0.652611,0.5485 0.652611,1.466 0,0.435 -0.165517,0.8275 -0.160789,0.3878 -0.591134,0.9175 -0.118226,0.1371 -0.751921,0.7945 -0.633695,0.6526 -1.787587,1.8301 z"
         id="path4141"
         inkscape:connector-curvature="0" />
    </g>
    <rect
       style="opacity:1;fill:none;fill-opacity:1;stroke:#000000;stroke-width:0.78160298;stroke-linecap:butt;stroke-linejoin:round;stroke-miterlimit:4;stroke-dasharray:none;stroke-dashoffset:0;stroke-opacity:1"
       id="rect4695"
       width="22.999367"
       height="22.999367"
       x="0.50031662"
       y="1028.8625"
       ry="2.0274925" />
  </g>
</svg>
